<svg width="1080" height="182" viewBox="0 0 1080 182" fill="none" xmlns="http://www.w3.org/2000/svg">
<path d="M982.868 36.4492C983.298 37.601 983.892 38.5866 984.663 39.4061C985.423 40.2256 986.326 40.8458 987.372 41.2777C988.418 41.7096 989.552 41.9311 990.785 41.9311C991.974 41.9311 993.097 41.7096 994.143 41.2556C995.189 40.8015 996.103 40.1702 996.884 39.3507C997.666 38.5312 998.272 37.5567 998.701 36.4271C999.131 35.2975 999.351 34.0239 999.351 32.6285V11H1004.58V46.0397H999.406V42.7838C998.25 44.0131 996.873 44.9655 995.299 45.6411C993.724 46.3055 992.018 46.6378 990.201 46.6378C988.341 46.6378 986.612 46.3166 985.004 45.6632C983.397 45.0098 981.999 44.0906 980.821 42.8835C979.642 41.6764 978.696 40.2367 978.024 38.5534C977.341 36.87 977 34.9874 977 32.9164V11H982.23V32.6174C982.23 34.0239 982.439 35.2975 982.868 36.4492Z" fill="#7D7E85"/>
<path d="M1013.58 11V23.7578C1014.73 22.595 1016.08 21.6647 1017.61 20.9781C1019.14 20.2915 1020.79 19.9482 1022.58 19.9482C1024.44 19.9482 1026.18 20.3026 1027.81 21.0003C1029.44 21.698 1030.85 22.6504 1032.04 23.8575C1033.23 25.0646 1034.18 26.4822 1034.88 28.1101C1035.57 29.7491 1035.93 31.4768 1035.93 33.3151C1035.93 35.1535 1035.57 36.8811 1034.88 38.498C1034.19 40.1149 1033.24 41.5213 1032.04 42.7285C1030.85 43.9245 1029.43 44.8769 1027.81 45.5857C1026.18 46.2834 1024.44 46.6378 1022.58 46.6378C1020.79 46.6378 1019.13 46.2945 1017.58 45.6078C1016.04 44.9212 1014.69 44.002 1013.53 42.8281V46.0287H1008.56V11H1013.58ZM1014.15 36.7704C1014.6 37.8335 1015.22 38.7749 1016.01 39.5722C1016.8 40.3696 1017.74 41.0119 1018.79 41.477C1019.85 41.9422 1021 42.1747 1022.23 42.1747C1023.42 42.1747 1024.55 41.9422 1025.61 41.477C1026.67 41.0119 1027.59 40.3807 1028.37 39.5722C1029.16 38.7749 1029.77 37.8335 1030.23 36.7704C1030.7 35.7072 1030.93 34.5555 1030.93 33.3151C1030.93 32.0748 1030.7 30.923 1030.23 29.8377C1029.77 28.7524 1029.14 27.8111 1028.37 27.0137C1027.59 26.2164 1026.68 25.5851 1025.61 25.1421C1024.54 24.6992 1023.42 24.4666 1022.23 24.4666C1021.04 24.4666 1019.91 24.6881 1018.85 25.1421C1017.79 25.5962 1016.86 26.2164 1016.06 27.0137C1015.27 27.8111 1014.63 28.7524 1014.17 29.8377C1013.71 30.923 1013.48 32.0859 1013.48 33.3151C1013.48 34.5555 1013.7 35.7072 1014.15 36.7704Z" fill="#7D7E85"/>
<path d="M1038.75 28.1655C1039.41 26.5597 1040.32 25.1532 1041.49 23.9351C1042.65 22.7169 1044.02 21.7534 1045.62 21.0557C1047.21 20.358 1048.93 20.0036 1050.79 20.0036C1052.62 20.0036 1054.3 20.3358 1055.87 21.0003C1057.43 21.6648 1058.77 22.595 1059.9 23.78C1061.02 24.965 1061.9 26.3714 1062.54 27.9883C1063.17 29.6052 1063.49 31.366 1063.49 33.2709V34.921H1042.83C1043 35.9509 1043.33 36.9144 1043.82 37.8003C1044.32 38.6863 1044.94 39.4504 1045.68 40.1038C1046.43 40.7572 1047.28 41.2667 1048.21 41.6321C1049.16 41.9976 1050.16 42.1858 1051.22 42.1858C1054.24 42.1858 1056.68 40.9344 1058.53 38.4316L1062.16 41.1338C1060.91 42.8392 1059.35 44.1682 1057.48 45.1427C1055.62 46.1062 1053.53 46.5935 1051.22 46.5935C1049.33 46.5935 1047.56 46.2613 1045.92 45.5968C1044.28 44.9323 1042.85 43.991 1041.64 42.7949C1040.43 41.5989 1039.47 40.1814 1038.78 38.5645C1038.08 36.9476 1037.73 35.1867 1037.73 33.2819C1037.75 31.4657 1038.08 29.7713 1038.75 28.1655ZM1045.74 26.1943C1044.33 27.3792 1043.39 28.9518 1042.93 30.9231H1058.41C1057.98 28.9518 1057.06 27.3792 1055.65 26.1943C1054.24 25.0093 1052.59 24.4223 1050.69 24.4223C1048.8 24.4113 1047.15 25.0093 1045.74 26.1943Z" fill="#7D7E85"/>
<path d="M1072.89 26.7701C1071.83 27.9329 1071.29 29.5277 1071.29 31.5211V46.0398H1066.27V20.513H1071.25V23.6692C1071.87 22.6393 1072.7 21.8198 1073.71 21.2218C1074.73 20.6238 1075.93 20.3247 1077.32 20.3247H1079.06V25.0314H1076.97C1075.31 25.0093 1073.94 25.5962 1072.89 26.7701Z" fill="#7D7E85"/>
<path fill-rule="evenodd" clip-rule="evenodd" d="M839.523 12.8362C841.924 12.4125 844.255 12.0594 846.656 11.6356C846.656 15.3786 846.656 19.051 846.656 22.7235C847.645 22.5116 848.563 22.2291 849.481 22.1585C851.811 21.876 854.071 21.876 856.331 22.5822C858.45 23.2884 859.651 24.8421 860.004 26.9608C860.216 28.1614 860.286 29.362 860.286 30.5626C860.286 32.9638 860.286 35.365 860.216 37.7662C860.074 40.0967 859.439 42.1448 857.532 43.6985C856.261 44.6872 854.778 45.1816 853.224 45.4641C850.116 45.9585 846.938 45.8878 843.831 45.4641C842.56 45.3229 841.289 45.111 839.947 44.9697C839.594 44.8991 839.452 44.7579 839.452 44.4754C839.452 44.2635 839.452 44.0516 839.452 43.8398C839.452 33.8113 839.452 23.7122 839.452 13.6837C839.452 13.3306 839.452 13.1187 839.523 12.8362ZM846.656 39.673C848.068 39.8142 849.41 39.8849 850.752 39.673C852.165 39.3905 852.941 38.6137 852.941 37.1306C853.012 34.9413 853.083 32.6813 853.012 30.492C852.941 28.9383 852.306 28.3027 850.823 28.0908C849.41 27.8789 848.139 28.3027 846.868 28.8677C846.727 28.9383 846.656 29.2208 846.656 29.362C846.656 31.3395 846.656 33.3875 846.656 35.365C846.656 36.7775 846.656 38.1899 846.656 39.673Z" fill="#7D7E85"/>
<path fill-rule="evenodd" clip-rule="evenodd" d="M928.932 45.3935C928.438 45.3935 928.014 45.3935 927.59 45.3935C925.613 45.3935 923.635 45.3935 921.658 45.3935C921.234 45.3935 921.022 45.2522 920.74 44.8991C918.833 41.6504 916.855 38.4018 914.949 35.1531C914.878 35.0825 914.807 35.0119 914.737 34.8C914.737 38.4018 914.737 41.8623 914.737 45.3228C914.525 45.3228 914.313 45.3228 914.172 45.3228C912.124 45.3228 910.146 45.3228 908.098 45.3228C907.604 45.3228 907.463 45.1816 907.463 44.7579C907.463 42.4979 907.463 40.238 907.463 37.9074C907.463 29.7858 907.463 21.5935 907.463 13.4718C907.463 12.7656 907.463 12.7656 908.169 12.695C910.146 12.3419 912.124 12.0594 914.101 11.7062C914.242 11.7062 914.454 11.7062 914.666 11.6356C914.666 18.4861 914.666 25.3365 914.666 32.1163C914.737 32.1163 914.737 32.1163 914.807 32.187C915.019 31.9045 915.16 31.622 915.372 31.3395C917.209 28.4439 918.974 25.619 920.81 22.7235C921.022 22.3703 921.305 22.1585 921.728 22.1585C923.847 22.1585 925.966 22.1585 928.084 22.1585C928.296 22.1585 928.579 22.1585 928.932 22.1585C928.791 22.3703 928.72 22.5822 928.649 22.7235C926.46 26.1134 924.341 29.5739 922.152 32.9638C921.94 33.3169 921.87 33.5994 922.152 34.0232C924.341 37.6249 926.531 41.2973 928.72 44.9697C928.791 45.111 928.861 45.1816 928.932 45.3935Z" fill="#7D7E85"/>
<path fill-rule="evenodd" clip-rule="evenodd" d="M836.557 38.9668C836.557 39.1787 836.557 39.3199 836.557 39.4612C836.557 41.0855 836.557 42.7098 836.557 44.3341C836.557 44.6873 836.486 44.8285 836.133 44.8991C832.884 45.6054 829.636 45.8172 826.317 45.676C824.763 45.6054 823.209 45.2522 821.797 44.6166C819.184 43.416 817.701 41.2974 817.206 38.5431C816.994 37.5543 816.994 36.495 816.994 35.5063C816.994 33.7407 816.924 31.9751 816.994 30.2095C817.065 28.2321 817.63 26.3959 818.972 24.8422C820.102 23.5003 821.655 22.7941 823.35 22.441C826.246 21.8054 829.141 21.8054 831.966 22.7941C834.862 23.7828 836.628 25.9015 836.981 28.8677C837.263 31.1982 837.192 33.5994 837.334 36.0712C836.981 36.0712 836.769 36.0712 836.557 36.0712C832.673 36.0712 828.718 36.0712 824.833 36.0712C824.339 36.0712 824.198 36.2125 824.268 36.6362C824.339 36.9893 824.268 37.3425 824.339 37.6956C824.551 38.8962 825.257 39.6024 826.458 39.673C827.941 39.7436 829.424 39.8143 830.907 39.7436C832.673 39.6024 834.438 39.3199 836.204 39.108C836.345 38.9668 836.416 38.9668 836.557 38.9668ZM827.164 31.057C827.658 31.057 828.153 31.057 828.576 31.057C830.13 31.057 830.13 31.057 829.989 29.5033C829.848 28.4439 829.283 27.6671 828.223 27.5258C827.517 27.3846 826.74 27.3846 826.034 27.5258C825.187 27.6671 824.551 28.2321 824.339 29.0796C824.268 29.5739 824.268 30.1389 824.268 30.6333C824.268 30.9864 824.41 31.057 824.692 31.057C825.54 31.057 826.317 31.057 827.164 31.057Z" fill="#7D7E85"/>
<path fill-rule="evenodd" clip-rule="evenodd" d="M905.768 33.8113C905.697 35.4357 905.697 36.9894 905.485 38.5431C904.991 42.1448 902.872 44.4048 899.27 45.2523C896.375 45.9585 893.409 45.9585 890.513 45.0404C887.406 44.0517 885.64 41.8624 885.075 38.6843C884.863 37.4837 884.863 36.2831 884.863 35.0825C884.863 33.317 884.792 31.622 884.934 29.8564C885.287 25.7603 887.547 23.2179 891.643 22.3704C894.468 21.8054 897.293 21.8054 900.047 22.7235C903.084 23.7122 904.849 25.9015 905.344 29.0089C905.697 30.5627 905.626 32.187 905.768 33.8113ZM898.423 33.8113C898.423 32.6814 898.423 31.5514 898.423 30.4214C898.423 29.3621 897.717 28.444 896.657 28.1615C895.81 27.879 894.962 27.879 894.115 28.0908C892.914 28.3733 892.137 29.2208 892.137 30.3508C892.067 32.6814 892.067 34.9413 892.137 37.2719C892.137 38.4018 892.844 39.2493 893.903 39.5318C894.538 39.673 895.245 39.7437 895.88 39.673C897.505 39.5318 898.423 38.5431 898.423 36.9187C898.423 35.8594 898.423 34.8707 898.423 33.8113Z" fill="#7D7E85"/>
<path fill-rule="evenodd" clip-rule="evenodd" d="M883.098 34.0232C882.956 35.5063 882.956 37.2718 882.674 38.9668C882.038 42.498 879.849 44.4754 876.459 45.2523C873.705 45.8879 870.95 45.8879 868.196 45.111C864.947 44.1929 863.041 42.0036 862.405 38.7549C862.264 37.9781 862.193 37.1306 862.193 36.2831C862.193 34.3763 862.123 32.4695 862.193 30.5626C862.264 28.0908 863.041 25.9015 864.947 24.2066C866.219 23.0766 867.772 22.5116 869.467 22.2291C872.222 21.8054 874.976 21.8054 877.66 22.7941C880.626 23.8534 882.321 26.0428 882.744 29.0796C882.956 30.6333 882.956 32.187 883.098 34.0232ZM869.397 33.8113C869.397 34.8707 869.326 35.8594 869.397 36.9187C869.397 37.06 869.397 37.2012 869.397 37.4131C869.538 38.4724 870.032 39.2493 871.092 39.5318C871.798 39.673 872.504 39.7437 873.21 39.7437C874.764 39.6024 875.682 38.6137 875.682 37.2012C875.682 35.0119 875.682 32.8226 875.682 30.6333C875.682 29.5033 874.976 28.5852 873.846 28.2321C872.928 27.9496 872.08 27.9496 871.162 28.2321C870.103 28.5146 869.397 29.3621 869.397 30.492C869.397 31.5514 869.397 32.6813 869.397 33.8113Z" fill="#7D7E85"/>
<path fill-rule="evenodd" clip-rule="evenodd" d="M788.745 44.1929C787.403 44.6166 786.061 45.111 784.79 45.4641C783.236 45.8172 781.612 45.8878 779.988 45.4641C777.445 44.7578 776.103 42.9923 775.609 40.5205C775.397 39.3199 775.397 38.0487 775.609 36.7774C776.103 34.5175 777.516 33.105 779.776 32.6813C780.835 32.4694 781.895 32.3988 782.954 32.3282C784.366 32.2576 785.849 32.3282 787.262 32.3282C787.686 32.3282 787.827 32.1869 787.827 31.7632C787.827 31.4101 787.756 31.057 787.827 30.7038C787.827 28.8676 786.979 28.4439 785.496 28.3733C783.166 28.3027 780.835 28.3027 778.505 28.232C778.293 28.232 778.081 28.232 777.798 28.232C777.869 27.6671 777.869 27.1727 777.94 26.6077C778.081 25.2659 778.222 23.924 778.363 22.5116C778.363 22.3703 778.646 22.1584 778.717 22.1584C781.683 22.1584 784.719 22.1584 787.686 22.2997C788.674 22.2997 789.592 22.5822 790.511 22.8647C793.053 23.5709 794.395 25.4071 794.748 27.9495C794.889 29.0089 794.96 30.0682 794.96 31.1276C794.96 35.6475 794.96 40.1673 794.96 44.6872C794.96 45.1816 794.819 45.3228 794.324 45.3228C792.7 45.3228 791.076 45.3228 789.522 45.3228C789.027 45.3228 788.886 45.111 788.816 44.6872C788.816 44.6166 788.745 44.3341 788.745 44.1929ZM785.638 37.2012C785.143 37.2012 784.578 37.2012 784.084 37.2012C783.025 37.2012 782.601 37.6955 782.601 38.7549C782.601 39.9555 783.166 40.5205 784.366 40.5911C785.496 40.6617 786.556 40.3086 787.544 39.8142C787.686 39.7436 787.756 39.5317 787.827 39.3199C787.827 38.7549 787.827 38.2605 787.827 37.6955C787.827 37.3424 787.686 37.2718 787.403 37.2718C786.768 37.2012 786.203 37.2012 785.638 37.2012Z" fill="#7D7E85"/>
<path fill-rule="evenodd" clip-rule="evenodd" d="M776.033 11C776.033 12.4125 776.033 13.6837 776.033 15.0255C776.033 15.5905 776.033 16.0849 776.033 16.6498C776.033 17.003 775.962 17.0736 775.609 17.0736C774.691 17.0736 773.702 17.0736 772.784 17.0736C772.431 17.0736 772.149 17.1442 771.796 17.2148C771.16 17.3561 770.807 17.7798 770.807 18.4154C770.736 19.6866 770.807 20.9579 770.807 22.2291C772.502 22.2291 774.267 22.2291 776.104 22.2291C776.033 23.2178 775.962 24.0653 775.821 24.9834C775.75 25.9015 775.609 26.749 775.539 27.6671C775.539 28.0908 775.397 28.232 774.903 28.232C773.49 28.232 772.149 28.232 770.736 28.232C770.736 33.9525 770.736 39.6024 770.736 45.3228C768.335 45.3228 766.004 45.3228 763.603 45.3228C763.533 45.111 763.533 44.8991 763.533 44.6166C763.533 39.3905 763.533 34.0938 763.533 28.8676C763.533 28.3733 763.462 28.232 762.897 28.232C761.979 28.3027 760.99 28.232 760.001 28.232C760.001 28.0202 760.001 27.8083 760.001 27.5964C760.001 26.0427 760.001 24.489 760.001 23.0059C760.001 22.1585 759.931 22.2291 760.778 22.2291C761.555 22.2291 762.332 22.2291 763.109 22.2291C763.462 22.2997 763.533 22.1585 763.533 21.8053C763.533 20.3929 763.533 18.9804 763.603 17.568C763.674 15.8024 764.168 14.1074 765.51 12.8362C766.499 11.8475 767.77 11.3531 769.112 11.2119C771.372 11.0706 773.702 11.0706 776.033 11Z" fill="#7D7E85"/>
<path fill-rule="evenodd" clip-rule="evenodd" d="M815.017 28.7264C813.887 28.5145 812.828 28.3733 811.768 28.232C809.932 27.9495 808.166 27.8083 806.33 28.1614C805.2 28.3733 804.494 29.1501 804.494 30.2801C804.423 32.6813 804.423 35.0118 804.494 37.413C804.494 38.543 805.13 39.3199 806.26 39.4611C807.601 39.6024 808.943 39.673 810.214 39.6024C811.698 39.5317 813.181 39.1786 814.664 38.9667C814.734 38.9667 814.876 38.9667 815.017 38.9667C815.017 39.108 815.087 39.2492 815.087 39.3905C815.087 41.0148 815.087 42.7098 815.087 44.3341C815.087 44.6872 815.017 44.8285 814.664 44.8991C811.98 45.4641 809.296 45.8878 806.613 45.6759C804.211 45.5347 801.952 44.9697 800.045 43.2748C798.491 41.8623 797.573 40.0261 797.432 37.978C797.29 35.4356 797.22 32.8932 797.361 30.3507C797.502 27.4552 798.703 25.054 801.245 23.5003C802.658 22.6528 804.211 22.2291 805.906 22.0172C808.873 21.6641 811.768 22.0878 814.664 22.7234C814.805 22.794 815.087 22.9353 815.087 23.0765C815.087 24.9834 815.017 26.8196 815.017 28.7264Z" fill="#7D7E85"/>
<path fill-rule="evenodd" clip-rule="evenodd" d="M455.734 11L437.743 39.5378H417.959L422.509 32.5067H434.779L439.259 25.4068H411.824L407.344 32.5067H413.961L405 46.6378H433.331H441.81L455.734 24.3728L460.835 32.5067H456.492L452.012 39.5378H465.315L469.796 46.6378H478.275L455.734 11Z" fill="#7D7E85"/>
<path fill-rule="evenodd" clip-rule="evenodd" d="M449.806 11.2758H420.785L416.305 18.3758L445.394 18.3068L449.806 11.2758Z" fill="#7D7E85"/>
<path d="M35.0086 26.4823H18.2528V31.4197H30.1862C29.6104 38.3293 23.8525 41.2803 18.4256 41.2803C11.4728 41.2803 5.41251 35.8102 5.41251 28.1521C5.41251 20.6811 11.1849 14.9375 18.44 14.9375C24.0252 14.9375 27.3216 18.5074 27.3216 18.5074L30.7764 14.9375C30.7764 14.9375 26.3428 10 18.2672 10C7.96042 9.98562 0 18.6658 0 28.0513C0 37.2497 7.48538 46.2034 18.5119 46.2034C28.2141 46.2034 35.3109 39.5529 35.3109 29.7355C35.3109 27.677 35.0086 26.4679 35.0086 26.4823Z" fill="#7D7E85"/>
<path d="M49.202 22.8979C42.3788 22.8979 37.4989 28.224 37.4989 34.4426C37.4989 40.7476 42.2348 46.1889 49.2884 46.1889C55.6653 46.1889 60.8907 41.309 60.8907 34.5866C60.8907 26.8709 54.8016 22.8979 49.202 22.8979ZM49.274 27.4755C52.628 27.4755 55.8093 30.1817 55.8093 34.5578C55.8093 38.8331 52.6424 41.6257 49.2596 41.6257C45.5457 41.6257 42.6091 38.646 42.6091 34.529C42.6091 30.484 45.5025 27.4755 49.274 27.4755Z" fill="#7D7E85"/>
<path d="M74.5227 22.8979C67.6995 22.8979 62.8196 28.224 62.8196 34.4426C62.8196 40.7476 67.5555 46.1889 74.6091 46.1889C80.986 46.1889 86.2114 41.309 86.2114 34.5866C86.197 26.8709 80.1223 22.8979 74.5227 22.8979ZM74.5803 27.4755C77.9343 27.4755 81.1156 30.1817 81.1156 34.5578C81.1156 38.8331 77.9487 41.6257 74.5659 41.6257C70.852 41.6257 67.9154 38.646 67.9154 34.529C67.9154 30.484 70.8088 27.4755 74.5803 27.4755Z" fill="#7D7E85"/>
<path d="M99.4836 22.9123C93.2218 22.9123 88.2987 28.3968 88.2987 34.5434C88.2987 41.5538 93.9991 46.2033 99.3684 46.2033C102.694 46.2033 104.45 44.879 105.76 43.3675V45.6707C105.76 49.6869 103.327 52.0909 99.6419 52.0909C96.0864 52.0909 94.3014 49.4422 93.6824 47.9451L89.2056 49.8165C90.789 53.1705 93.9847 56.6685 99.6851 56.6685C105.904 56.6685 110.654 52.7531 110.654 44.5335V23.3297H105.774V25.5898C104.263 23.9775 102.204 22.9123 99.4836 22.9123ZM99.9442 27.4755C103.01 27.4755 106.163 30.0954 106.163 34.5722C106.163 39.121 103.025 41.6257 99.8723 41.6257C96.5326 41.6257 93.4377 38.9195 93.4377 34.6154C93.4233 30.153 96.6478 27.4755 99.9442 27.4755Z" fill="#7D7E85"/>
<path d="M131.915 22.8835C126.014 22.8835 121.062 27.5763 121.062 34.5147C121.062 41.8417 126.589 46.2034 132.491 46.2034C137.414 46.2034 140.437 43.5115 142.251 41.0932L138.22 38.4157C137.17 40.0423 135.428 41.6258 132.52 41.6258C129.252 41.6258 127.741 39.8264 126.805 38.099L142.424 31.6213L141.618 29.7212C140.092 25.9929 136.579 22.8835 131.915 22.8835ZM132.117 27.3748C134.247 27.3748 135.773 28.512 136.421 29.8651L125.999 34.2268C125.553 30.844 128.749 27.3748 132.117 27.3748Z" fill="#7D7E85"/>
<path d="M118.687 11.1947H113.907V45.5123H118.687V11.1947Z" fill="#7D7E85"/>
<path d="M242.225 15.8418C241.61 13.5578 239.809 11.7569 237.525 11.142C233.352 10 216.661 10 216.661 10C216.661 10 199.971 10 195.798 11.0981C193.558 11.713 191.713 13.5578 191.098 15.8418C190 20.0145 190 28.6674 190 28.6674C190 28.6674 190 37.3642 191.098 41.493C191.713 43.777 193.514 45.5779 195.798 46.1928C200.015 47.3348 216.661 47.3348 216.661 47.3348C216.661 47.3348 233.352 47.3348 237.525 46.2367C239.809 45.6218 241.61 43.8209 242.225 41.5369C243.323 37.3642 243.323 28.7113 243.323 28.7113C243.323 28.7113 243.367 20.0145 242.225 15.8418Z" fill="#7D7E85"/>
<path d="M211.347 36.6614L225.226 28.6674L211.347 20.6734V36.6614Z" fill="white"/>
<path d="M267.437 43.9966C266.383 43.2939 265.636 42.1958 265.197 40.6585C264.757 39.1651 264.538 37.1446 264.538 34.6849V31.3028C264.538 28.7992 264.801 26.7787 265.285 25.2414C265.812 23.7041 266.602 22.606 267.656 21.9032C268.754 21.2004 270.16 20.8491 271.917 20.8491C273.63 20.8491 275.036 21.2004 276.09 21.9032C277.144 22.606 277.891 23.748 278.374 25.2414C278.857 26.7348 279.12 28.7553 279.12 31.3028V34.6849C279.12 37.1885 278.901 39.1651 278.418 40.7024C277.934 42.1958 277.188 43.3378 276.134 44.0406C275.079 44.7433 273.63 45.0947 271.829 45.0947C269.984 45.0508 268.491 44.6994 267.437 43.9966ZM273.366 40.3071C273.674 39.5604 273.806 38.2866 273.806 36.5736V29.2823C273.806 27.6132 273.674 26.3834 273.366 25.5928C273.059 24.8022 272.576 24.4508 271.829 24.4508C271.126 24.4508 270.599 24.8461 270.336 25.5928C270.028 26.3834 269.896 27.6132 269.896 29.2823V36.5736C269.896 38.2866 270.028 39.5604 270.336 40.3071C270.599 41.0538 271.126 41.4491 271.873 41.4491C272.576 41.4491 273.059 41.0977 273.366 40.3071Z" fill="#7D7E85"/>
<path d="M348.519 34.7288V35.9147C348.519 37.4081 348.563 38.5501 348.651 39.2968C348.739 40.0435 348.914 40.6145 349.222 40.922C349.485 41.2733 349.925 41.449 350.54 41.449C351.33 41.449 351.857 41.1416 352.165 40.5266C352.472 39.9117 352.604 38.9015 352.648 37.452L357.172 37.7156C357.216 37.9352 357.216 38.1987 357.216 38.5501C357.216 40.7023 356.645 42.3275 355.459 43.3817C354.273 44.4358 352.604 44.9629 350.452 44.9629C347.86 44.9629 346.059 44.1284 345.005 42.5032C343.951 40.878 343.424 38.3744 343.424 34.9484V30.8635C343.424 27.3497 343.951 24.8021 345.049 23.177C346.147 21.5518 347.992 20.7612 350.584 20.7612C352.384 20.7612 353.79 21.1126 354.756 21.7714C355.723 22.4303 356.381 23.4844 356.777 24.846C357.172 26.2516 357.348 28.1842 357.348 30.6439V34.6409H348.519V34.7288ZM349.178 24.89C348.914 25.2413 348.739 25.7684 348.651 26.5151C348.563 27.2618 348.519 28.4038 348.519 29.9411V31.6102H352.384V29.9411C352.384 28.4477 352.341 27.3057 352.253 26.5151C352.165 25.7245 351.945 25.1974 351.682 24.89C351.418 24.5825 350.979 24.4068 350.452 24.4068C349.837 24.4068 349.442 24.5386 349.178 24.89Z" fill="#7D7E85"/>
<path d="M254.611 34.2886L248.638 12.6344H253.864L255.973 22.4293C256.5 24.8451 256.895 26.9095 257.159 28.6225H257.29C257.466 27.3927 257.861 25.3722 258.476 22.4732L260.673 12.6344H265.899L259.838 34.2886V44.6545H254.655V34.2886H254.611Z" fill="#7D7E85"/>
<path d="M296.119 21.2882V44.6994H291.99L291.551 41.8443H291.419C290.321 43.9966 288.608 45.0947 286.368 45.0947C284.83 45.0947 283.688 44.5676 282.942 43.5573C282.195 42.5471 281.844 40.9659 281.844 38.7697V21.2882H287.114V38.4622C287.114 39.5164 287.246 40.2631 287.466 40.7023C287.685 41.1416 288.081 41.3612 288.608 41.3612C289.047 41.3612 289.486 41.2294 289.926 40.9219C290.365 40.6584 290.672 40.307 290.848 39.8678V21.2882H296.119Z" fill="#7D7E85"/>
<path d="M323.132 21.2882V44.6994H319.003L318.563 41.8443H318.432C317.334 43.9966 315.621 45.0947 313.381 45.0947C311.843 45.0947 310.701 44.5676 309.955 43.5573C309.208 42.5471 308.856 40.9659 308.856 38.7697V21.2882H314.127V38.4622C314.127 39.5164 314.259 40.2631 314.479 40.7023C314.698 41.1416 315.094 41.3612 315.621 41.3612C316.06 41.3612 316.499 41.2294 316.938 40.9219C317.378 40.6584 317.685 40.307 317.861 39.8678V21.2882H323.132Z" fill="#7D7E85"/>
<path d="M310.438 16.896H305.211V44.6555H300.072V16.896H294.845V12.6354H310.438V16.896Z" fill="#7D7E85"/>
<path d="M340.569 25.0218C340.262 23.5284 339.734 22.4742 339.032 21.8154C338.329 21.1565 337.319 20.8052 336.089 20.8052C335.123 20.8052 334.2 21.0687 333.366 21.6397C332.531 22.1668 331.872 22.9135 331.433 23.7919H331.389V11.4495H326.294V44.6555H330.642L331.169 42.4593H331.301C331.697 43.25 332.311 43.8649 333.146 44.348C333.981 44.7873 334.859 45.0508 335.869 45.0508C337.67 45.0508 338.944 44.2163 339.778 42.5911C340.613 40.9659 341.052 38.3745 341.052 34.9045V31.215C341.008 28.5357 340.876 26.4713 340.569 25.0218ZM335.737 34.5531C335.737 36.2662 335.65 37.5839 335.518 38.5502C335.386 39.5165 335.123 40.2192 334.815 40.6146C334.464 41.0099 334.024 41.2295 333.497 41.2295C333.058 41.2295 332.663 41.1416 332.311 40.922C331.96 40.7024 331.653 40.3949 331.433 39.9996V26.7348C331.609 26.1199 331.916 25.5928 332.355 25.1536C332.795 24.7583 333.278 24.5386 333.761 24.5386C334.288 24.5386 334.727 24.7583 334.991 25.1536C335.298 25.5928 335.474 26.2956 335.606 27.2619C335.737 28.2721 335.781 29.6777 335.781 31.4785V34.5531H335.737Z" fill="#7D7E85"/>
<path d="M556.025 60.2448C572.608 60.2448 586.051 46.7585 586.051 30.1224C586.051 13.4863 572.608 0 556.025 0C539.443 0 526 13.4863 526 30.1224C526 46.7585 539.443 60.2448 556.025 60.2448Z" fill="#7D7E85"/>
<path d="M576.05 30.1224C575.96 27.6965 573.93 25.8021 571.504 25.8845C570.43 25.9219 569.407 26.3637 568.631 27.1049C565.213 24.7688 561.197 23.4885 557.07 23.3986L559.018 14.0017L565.444 15.357C565.623 17.0117 567.101 18.2097 568.75 18.03C570.4 17.8503 571.594 16.3678 571.415 14.7131C571.236 13.0583 569.758 11.8603 568.108 12.04C567.161 12.1373 566.31 12.6914 565.84 13.515L558.481 12.04C557.981 11.9277 557.481 12.2422 557.369 12.7513C557.369 12.7588 557.369 12.7588 557.369 12.7663L555.152 23.2189C550.973 23.2863 546.905 24.5742 543.442 26.9252C541.681 25.263 538.904 25.3454 537.247 27.1199C535.59 28.887 535.673 31.6723 537.441 33.3346C537.785 33.6566 538.18 33.9336 538.621 34.1283C538.591 34.57 538.591 35.0118 538.621 35.4536C538.621 42.1998 546.457 47.6882 556.122 47.6882C565.787 47.6882 573.624 42.2073 573.624 35.4536C573.654 35.0118 573.654 34.57 573.624 34.1283C575.132 33.372 576.079 31.8146 576.05 30.1224ZM546.024 33.1399C546.024 31.4777 547.375 30.1224 549.032 30.1224C550.689 30.1224 552.04 31.4777 552.04 33.1399C552.04 34.8021 550.689 36.1574 549.032 36.1574C547.368 36.1424 546.024 34.8021 546.024 33.1399ZM563.466 41.4211C561.332 43.031 558.72 43.8546 556.048 43.7423C553.376 43.8546 550.764 43.031 548.629 41.4211C548.345 41.0767 548.398 40.5601 548.741 40.2755C549.039 40.0285 549.465 40.0285 549.771 40.2755C551.577 41.6008 553.779 42.2747 556.018 42.1699C558.257 42.2897 560.466 41.6458 562.294 40.3354C562.623 40.0135 563.16 40.021 563.481 40.3504C563.802 40.6799 563.795 41.219 563.466 41.5409V41.4211ZM562.929 36.2622C561.272 36.2622 559.921 34.907 559.921 33.2447C559.921 31.5825 561.272 30.2273 562.929 30.2273C564.586 30.2273 565.937 31.5825 565.937 33.2447C566.004 34.907 564.713 36.3071 563.056 36.3745C563.004 36.3745 562.959 36.3745 562.906 36.3745L562.929 36.2622Z" fill="white"/>
<path d="M693.516 20.9352C695.775 20.9352 697.606 19.0981 697.606 16.832C697.606 14.5659 695.775 12.7289 693.516 12.7289C691.257 12.7289 689.426 14.5659 689.426 16.832C689.426 19.0981 691.257 20.9352 693.516 20.9352Z" fill="#7D7E85"/>
<path d="M635.555 34.2929C637.137 34.4052 638.511 33.2072 638.63 31.6124C638.637 31.5225 638.637 31.4177 638.637 31.3204C638.615 30.7663 638.548 30.2047 638.436 29.6581C637.466 24.4618 633.04 20.6356 627.778 20.426C621.785 20.426 616.777 25.9518 616.777 32.7355C616.777 39.5192 621.703 45.0525 627.771 45.0525C630.987 45.1798 634.107 43.877 636.271 41.4885C637.16 40.5151 637.085 39.0101 636.115 38.1191C636.04 38.0517 635.973 37.9918 635.898 37.9394C634.928 37.3329 633.667 37.4602 632.846 38.2538C631.495 39.6016 629.681 40.3728 627.771 40.4327C624.472 40.1707 621.83 37.58 621.501 34.263H635.465L635.555 34.2929ZM627.748 25.0608C630.652 25.2555 633.092 27.337 633.741 30.1898H621.77C622.412 27.3295 624.838 25.248 627.748 25.0608Z" fill="#7D7E85"/>
<path d="M617.016 22.8145C617.016 21.6614 616.165 20.6805 615.023 20.5383C611.941 20.0216 608.806 21.1672 606.784 23.5633V23.2638C606.784 21.9834 605.754 20.9501 604.478 20.9501C603.201 20.9501 602.171 21.9834 602.171 23.2638V42.2072C602.141 43.4502 603.089 44.5059 604.328 44.6107C605.59 44.7006 606.694 43.7422 606.776 42.4768C606.784 42.3869 606.784 42.2971 606.776 42.2072V32.4884C606.575 28.6099 609.538 25.3079 613.404 25.0982C613.747 25.0757 614.098 25.0832 614.441 25.1207H614.904C616.098 25.0158 617.016 24.02 617.016 22.8145Z" fill="#7D7E85"/>
<path d="M695.815 25.3004C695.815 24.0201 694.785 22.9868 693.508 22.9868C692.232 22.9868 691.202 24.0201 691.202 25.3004V42.1998C691.202 43.4802 692.232 44.5135 693.508 44.5135C694.785 44.5135 695.815 43.4802 695.815 42.1998V25.3004Z" fill="#7D7E85"/>
<path d="M661.781 12.4593C661.781 11.1864 660.751 10.1531 659.483 10.1531C658.214 10.1531 657.184 11.1864 657.184 12.4593V22.7921C655.632 21.2197 653.497 20.3661 651.295 20.426C645.302 20.426 640.294 25.9518 640.294 32.7355C640.294 39.5193 645.228 45.0526 651.295 45.0526C653.534 45.12 655.699 44.2589 657.288 42.664C657.647 43.8845 658.923 44.5808 660.139 44.2214C661.057 43.9519 661.714 43.1432 661.774 42.1773L661.781 12.4593ZM651.28 40.4926C647.75 40.4926 644.877 37.0484 644.877 32.788C644.877 28.5275 647.728 25.0833 651.28 25.0833C654.833 25.0833 657.684 28.5275 657.684 32.788C657.684 37.0484 654.833 40.4552 651.295 40.4552L651.28 40.4926Z" fill="#7D7E85"/>
<path d="M685.829 12.4593C685.829 11.1864 684.799 10.1531 683.53 10.1531C682.261 10.1531 681.231 11.1864 681.231 12.4593V22.7921C679.679 21.2197 677.544 20.3661 675.342 20.426C669.349 20.426 664.341 25.9518 664.341 32.7355C664.341 39.5193 669.275 45.0526 675.342 45.0526C677.581 45.12 679.746 44.2589 681.336 42.664C681.694 43.8845 682.97 44.5808 684.187 44.2214C685.105 43.9519 685.761 43.1432 685.821 42.1773L685.829 12.4593ZM675.335 40.4926C671.805 40.4926 668.931 37.0484 668.931 32.788C668.931 28.5275 671.782 25.0833 675.335 25.0833C678.888 25.0833 681.739 28.5275 681.739 32.788C681.739 37.0484 678.888 40.4552 675.35 40.4552L675.335 40.4926Z" fill="#7D7E85"/>
<path d="M707.763 42.1923V25.0608H709.756C710.861 25.1281 711.801 24.2821 711.868 23.1814C711.868 23.1439 711.876 23.099 711.876 23.0541C711.973 21.9534 711.159 20.98 710.07 20.8827C710.01 20.8752 709.943 20.8752 709.883 20.8752H707.771V17.693C707.786 16.4576 706.845 15.4168 705.614 15.3045C704.353 15.2146 703.255 16.173 703.166 17.4384C703.158 17.4908 703.158 17.5507 703.158 17.6032V20.9276H701.158C700.054 20.8602 699.113 21.7063 699.046 22.807C699.046 22.8444 699.039 22.8894 699.039 22.9343C698.942 24.035 699.755 25.0083 700.845 25.1057C700.904 25.1132 700.972 25.1132 701.031 25.1132H703.024V42.1998C703.024 43.4726 704.054 44.5059 705.323 44.5059C706.592 44.5883 707.674 43.6149 707.756 42.342C707.763 42.2971 707.763 42.2447 707.763 42.1923Z" fill="#7D7E85"/>
<path fill-rule="evenodd" clip-rule="evenodd" d="M964.018 171.537C955.494 177.804 943.12 181.144 932.487 181.144C917.547 181.144 904.119 175.654 893.99 166.46C893.211 165.728 893.898 164.767 894.861 165.316C905.814 171.674 919.38 175.517 933.404 175.517C942.845 175.517 953.248 173.55 962.781 169.524C964.248 168.93 965.439 170.485 964.018 171.537Z" fill="#7D7E85"/>
<path fill-rule="evenodd" clip-rule="evenodd" d="M967.593 167.466C966.493 166.094 960.398 166.826 957.648 167.146C956.823 167.237 956.686 166.505 957.419 166.002C962.323 162.571 970.297 163.578 971.214 164.721C972.13 165.865 970.985 173.87 966.402 177.713C965.714 178.308 965.027 177.987 965.348 177.21C966.356 174.602 968.693 168.884 967.593 167.466Z" fill="#7D7E85"/>
<path fill-rule="evenodd" clip-rule="evenodd" d="M957.831 141.803V138.51C957.831 138.006 958.198 137.686 958.656 137.686H973.597C974.055 137.686 974.468 138.052 974.468 138.51V141.346C974.468 141.803 974.055 142.444 973.322 143.45L965.577 154.474C968.464 154.429 971.489 154.84 974.101 156.304C974.697 156.624 974.834 157.128 974.88 157.585V161.153C974.88 161.656 974.33 162.205 973.78 161.931C969.197 159.506 963.102 159.278 958.015 161.977C957.511 162.251 956.961 161.702 956.961 161.199V157.814C956.961 157.265 956.961 156.35 957.511 155.527L966.448 142.718H958.656C958.198 142.672 957.831 142.306 957.831 141.803Z" fill="#7D7E85"/>
<path fill-rule="evenodd" clip-rule="evenodd" d="M903.385 162.571H898.848C898.436 162.526 898.069 162.205 898.023 161.794V138.51C898.023 138.052 898.436 137.686 898.894 137.686H903.11C903.569 137.686 903.889 138.052 903.935 138.464V141.483H904.027C905.127 138.555 907.189 137.183 909.985 137.183C912.826 137.183 914.614 138.555 915.897 141.483C916.997 138.555 919.517 137.183 922.176 137.183C924.1 137.183 926.163 137.961 927.446 139.745C928.867 141.712 928.592 144.548 928.592 147.018V161.702C928.592 162.16 928.179 162.526 927.721 162.526H923.184C922.726 162.48 922.359 162.114 922.359 161.702V149.351C922.359 148.39 922.451 145.92 922.221 145.005C921.901 143.45 920.847 142.993 919.563 142.993C918.463 142.993 917.318 143.724 916.859 144.914C916.401 146.103 916.447 148.024 916.447 149.351V161.702C916.447 162.16 916.034 162.526 915.576 162.526H911.039C910.581 162.48 910.214 162.114 910.214 161.702V149.351C910.214 146.744 910.626 142.947 907.418 142.947C904.164 142.947 904.302 146.652 904.302 149.351V161.702C904.256 162.205 903.844 162.571 903.385 162.571Z" fill="#7D7E85"/>
<path fill-rule="evenodd" clip-rule="evenodd" d="M987.3 137.229C994.037 137.229 997.704 142.993 997.704 150.357C997.704 157.448 993.671 163.075 987.3 163.075C980.701 163.075 977.08 157.311 977.08 150.083C977.08 142.855 980.746 137.229 987.3 137.229ZM987.346 141.986C984 141.986 983.771 146.561 983.771 149.397C983.771 152.233 983.725 158.317 987.3 158.317C990.829 158.317 990.967 153.422 990.967 150.449C990.967 148.482 990.875 146.149 990.279 144.273C989.821 142.627 988.813 141.986 987.346 141.986Z" fill="#7D7E85"/>
<path fill-rule="evenodd" clip-rule="evenodd" d="M1006.46 162.571H1001.92C1001.46 162.526 1001.09 162.16 1001.09 161.748V138.464C1001.14 138.052 1001.51 137.686 1001.97 137.686H1006.18C1006.59 137.686 1006.92 137.961 1007.01 138.327V141.895H1007.1C1008.38 138.693 1010.17 137.183 1013.29 137.183C1015.3 137.183 1017.32 137.915 1018.6 139.928C1019.79 141.803 1019.79 144.914 1019.79 147.155V161.794C1019.75 162.205 1019.38 162.526 1018.92 162.526H1014.39C1013.97 162.48 1013.61 162.205 1013.56 161.794V149.214C1013.56 146.652 1013.84 142.947 1010.72 142.947C1009.62 142.947 1008.61 143.679 1008.11 144.822C1007.47 146.24 1007.37 147.659 1007.37 149.214V161.748C1007.33 162.205 1006.92 162.571 1006.46 162.571Z" fill="#7D7E85"/>
<path fill-rule="evenodd" clip-rule="evenodd" d="M945.916 151.455C945.916 153.239 945.961 154.703 945.045 156.259C944.312 157.539 943.166 158.317 941.883 158.317C940.141 158.317 939.133 156.99 939.133 155.023C939.133 151.181 942.616 150.449 945.87 150.449V151.455H945.916ZM950.499 162.526C950.178 162.8 949.765 162.8 949.445 162.617C947.932 161.382 947.657 160.787 946.832 159.598C944.357 162.114 942.57 162.892 939.362 162.892C935.558 162.892 932.579 160.513 932.579 155.847C932.579 152.187 934.596 149.671 937.437 148.436C939.912 147.338 943.349 147.155 945.961 146.881V146.286C945.961 145.188 946.053 143.953 945.412 142.993C944.862 142.169 943.807 141.803 942.845 141.803C941.103 141.803 939.591 142.672 939.179 144.548C939.087 144.96 938.812 145.371 938.4 145.371L934 144.914C933.633 144.822 933.221 144.548 933.312 143.953C934.321 138.601 939.133 137 943.441 137C945.641 137 948.528 137.595 950.27 139.241C952.469 141.3 952.286 144.045 952.286 147.064V154.109C952.286 156.213 953.157 157.173 953.982 158.317C954.257 158.729 954.348 159.232 953.982 159.506C953.065 160.284 951.415 161.748 950.499 162.526Z" fill="#7D7E85"/>
<path fill-rule="evenodd" clip-rule="evenodd" d="M886.382 151.455C886.382 153.239 886.428 154.703 885.512 156.259C884.778 157.539 883.633 158.317 882.349 158.317C880.608 158.317 879.6 156.99 879.6 155.023C879.6 151.181 883.083 150.449 886.337 150.449V151.455H886.382ZM890.965 162.526C890.645 162.8 890.232 162.8 889.911 162.617C888.399 161.382 888.124 160.787 887.299 159.598C884.824 162.114 883.037 162.892 879.829 162.892C875.979 162.892 873 160.559 873 155.847C873 152.187 875.017 149.671 877.858 148.436C880.333 147.338 883.77 147.155 886.382 146.881V146.286C886.382 145.188 886.474 143.953 885.832 142.993C885.282 142.169 884.228 141.803 883.266 141.803C881.524 141.803 880.012 142.672 879.6 144.548C879.508 144.96 879.233 145.371 878.82 145.371L874.421 144.914C874.054 144.822 873.642 144.548 873.733 143.953C874.787 138.601 879.6 137 883.908 137C886.107 137 889.041 137.595 890.782 139.241C892.982 141.3 892.799 144.045 892.799 147.064V154.109C892.799 156.213 893.669 157.173 894.494 158.317C894.769 158.729 894.861 159.232 894.494 159.506C893.532 160.284 891.882 161.748 890.965 162.526Z" fill="#7D7E85"/>
<path d="M550 131.622H534.849L535.821 129H550V131.622Z" fill="#7D7E85"/>
<path d="M509.599 129H523.681L524.555 131.622H509.599V129Z" fill="#7D7E85"/>
<path d="M498.43 129C500.761 129.194 502.8 130.068 504.451 131.622H478.909V129H498.43Z" fill="#7D7E85"/>
<path d="M476.676 129H459V131.622H476.676V129Z" fill="#7D7E85"/>
<path d="M550 136.478H533.101L533.976 133.856H549.903V136.478H550Z" fill="#7D7E85"/>
<path d="M526.4 136.478H509.599V133.953H525.429L526.4 136.478Z" fill="#7D7E85"/>
<path d="M506.491 133.953C506.782 134.827 507.268 135.507 507.268 136.575H479.006V133.953H506.491Z" fill="#7D7E85"/>
<path d="M476.676 133.953H459V136.575H476.676V133.953Z" fill="#7D7E85"/>
<path d="M531.45 141.431L532.325 138.809H545.047V141.431H531.45Z" fill="#7D7E85"/>
<path d="M527.177 138.809L528.148 141.431H514.649V138.809H527.177Z" fill="#7D7E85"/>
<path d="M507.462 138.809C507.462 139.683 507.365 140.654 507.074 141.431H499.304V138.809H507.462Z" fill="#7D7E85"/>
<path d="M471.528 138.809H463.953V141.431H471.528V138.809Z" fill="#7D7E85"/>
<path d="M491.729 138.809H484.154V141.431H491.729V138.809Z" fill="#7D7E85"/>
<path d="M522.127 144.248V146.19H514.649V143.568H528.925L529.799 145.996L530.673 143.568H545.047V146.19H537.569V144.248L536.889 146.19H522.807L522.127 144.248Z" fill="#7D7E85"/>
<path d="M484.154 143.665H506.005C505.52 144.539 504.646 145.607 503.869 146.287H484.251C484.154 146.19 484.154 143.665 484.154 143.665Z" fill="#7D7E85"/>
<path d="M471.528 143.665H463.953V146.287H471.528V143.665Z" fill="#7D7E85"/>
<path d="M545.047 148.521H537.569V151.143H545.047V148.521Z" fill="#7D7E85"/>
<path d="M522.127 148.521H514.649V151.143H522.127V148.521Z" fill="#7D7E85"/>
<path d="M536.112 148.521L535.238 151.143H524.652L523.681 148.521H536.112Z" fill="#7D7E85"/>
<path d="M484.154 148.521H503.772C504.646 149.298 505.52 150.172 506.102 151.143H484.154C484.154 151.143 484.154 148.521 484.154 148.521Z" fill="#7D7E85"/>
<path d="M471.528 151.143V148.521H463.953V151.143H471.528Z" fill="#7D7E85"/>
<path d="M545.047 153.474H537.569V156.096H545.047V153.474Z" fill="#7D7E85"/>
<path d="M522.127 153.474H514.649V156.096H522.127V153.474Z" fill="#7D7E85"/>
<path d="M533.393 156.096C533.393 156.096 534.267 153.474 534.364 153.474H525.332L526.303 156.096H533.393Z" fill="#7D7E85"/>
<path d="M484.154 155.999V153.377H491.826V155.999H484.154Z" fill="#7D7E85"/>
<path d="M507.171 153.474C507.559 154.251 507.559 155.222 507.656 156.096H499.498V153.474H507.171Z" fill="#7D7E85"/>
<path d="M471.528 153.474H463.953V156.096H471.528V153.474Z" fill="#7D7E85"/>
<path d="M550 158.233H537.569V160.855H550V158.233Z" fill="#7D7E85"/>
<path d="M522.03 158.233H509.599V160.855H522.03V158.233Z" fill="#7D7E85"/>
<path d="M531.742 160.855H527.954L526.983 158.233H532.616L531.742 160.855Z" fill="#7D7E85"/>
<path d="M459 158.233V160.855H476.676V158.233C476.676 158.233 459 158.233 459 158.233Z" fill="#7D7E85"/>
<path d="M507.365 158.233C507.171 159.107 506.977 160.175 506.394 160.855H506.2H479.006V158.233H507.365Z" fill="#7D7E85"/>
<path d="M529.994 165.711H529.702L528.731 163.186H530.965L529.994 165.711Z" fill="#7D7E85"/>
<path d="M550 163.186H537.569V165.808H550V163.186Z" fill="#7D7E85"/>
<path d="M479.006 165.711V163.089C479.006 163.089 504.549 163.089 504.646 163.089C502.898 164.74 500.567 165.614 498.042 165.711H479.006Z" fill="#7D7E85"/>
<path d="M522.03 163.186H509.599V165.808H522.03V163.186Z" fill="#7D7E85"/>
<path d="M476.676 163.186V165.808H459V163.186H476.676Z" fill="#7D7E85"/>
<path fill-rule="evenodd" clip-rule="evenodd" d="M377.683 114.165C381.581 109.029 386.999 109 386.999 109C386.999 109 387.808 113.834 383.929 118.482C379.797 123.452 375.1 122.634 375.1 122.634C375.1 122.634 374.213 118.726 377.683 114.165Z" fill="#7D7E85"/>
<path fill-rule="evenodd" clip-rule="evenodd" d="M375.597 126.025C377.604 126.025 381.327 123.267 386.171 123.267C394.512 123.267 397.787 129.202 397.787 129.202C397.787 129.202 391.374 132.486 391.374 140.438C391.374 149.413 399.366 152.512 399.366 152.512C399.366 152.512 393.782 168.241 386.229 168.241C382.76 168.241 380.07 165.902 376.416 165.902C372.693 165.902 368.999 168.329 366.592 168.329C359.702 168.319 351 153.409 351 141.413C351 129.611 358.367 123.423 365.277 123.423C369.769 123.433 373.258 126.025 375.597 126.025Z" fill="#7D7E85"/>
<path d="M808.276 140.753H809.875C810.311 140.753 810.674 140.862 810.893 141.116C811.074 141.298 811.183 141.589 811.183 141.916C811.183 142.497 810.893 142.824 810.42 143.006L811.292 144.278H810.384L809.62 143.152H809.039V144.278H808.276V140.753ZM809.838 142.461C810.202 142.461 810.42 142.243 810.42 141.952C810.42 141.625 810.202 141.443 809.802 141.443H809.039V142.461H809.838Z" fill="#7D7E85"/>
<path d="M809.657 145.914C807.839 145.914 806.349 144.424 806.349 142.606C806.349 140.789 807.839 139.299 809.657 139.299C811.474 139.299 812.964 140.789 812.964 142.606C812.964 144.424 811.51 145.914 809.657 145.914ZM809.657 139.626C808.021 139.626 806.713 140.934 806.713 142.57C806.713 144.206 808.057 145.514 809.657 145.514C811.256 145.514 812.601 144.169 812.601 142.57C812.601 140.971 811.292 139.626 809.657 139.626Z" fill="#7D7E85"/>
<path d="M640.423 176.846C657.225 176.846 670.846 163.225 670.846 146.423C670.846 129.621 657.225 116 640.423 116C623.621 116 610 129.621 610 146.423C610 163.225 623.621 176.846 640.423 176.846Z" fill="#7D7E85"/>
<path d="M690.8 132.247C691.746 132.247 695.78 131.957 700.723 135.664C700.941 135.846 700.978 136.136 700.832 136.391L698.47 139.699C698.288 139.953 697.961 139.989 697.743 139.808C697.307 139.48 696.58 138.935 695.671 138.499C694.253 137.772 692.4 137.191 690.8 137.191C689.201 137.191 686.621 137.699 686.621 140.244C686.621 142.279 688.438 143.042 693.999 144.424C697.634 145.369 701.85 147.113 701.85 152.638C701.85 157.727 697.597 160.962 691.745 160.962C688.22 160.962 683.386 159.617 680.332 156.527C680.151 156.346 680.151 156.055 680.296 155.837L682.949 152.711C683.131 152.493 683.495 152.456 683.676 152.675C684.694 153.62 687.638 156.019 691.709 156.019C696.507 156.019 696.325 153.111 696.325 152.675C696.325 151.766 695.671 150.457 693.272 149.803C690.91 149.149 684.949 148.022 682.695 145.405C681.314 143.769 681.132 141.988 681.132 140.607C681.132 137.554 683.131 132.247 690.8 132.247Z" fill="#7D7E85"/>
<path d="M715.626 138.899C711.337 138.899 709.01 142.061 709.01 142.061V139.88C709.01 139.59 708.792 139.371 708.502 139.371H704.104C703.813 139.371 703.595 139.59 703.595 139.88V166.341C703.595 166.632 703.813 166.85 704.104 166.85H708.502C708.792 166.85 709.01 166.632 709.01 166.341V158.09C709.01 158.09 711.155 160.962 715.844 160.962C719.551 160.962 725.512 157.981 725.512 150.021C725.549 142.025 719.915 138.899 715.626 138.899ZM714.499 156.237C711.518 156.237 708.974 153.62 708.974 149.912C708.974 147.659 710.392 143.66 714.463 143.66C718.534 143.66 720.06 146.932 720.06 149.912C720.024 152.893 718.388 156.237 714.499 156.237Z" fill="#7D7E85"/>
<path d="M738.27 138.899C731.328 138.899 727.039 144.569 727.039 149.949C727.039 155.837 731.619 160.998 738.307 160.998C745.031 160.998 749.574 155.691 749.574 149.949C749.574 144.206 745.213 138.899 738.27 138.899ZM738.307 156.237C735.471 156.237 732.382 153.874 732.382 149.949C732.382 146.023 735.181 143.697 738.307 143.697C740.705 143.697 744.122 145.696 744.122 149.949C744.122 154.201 741.142 156.237 738.307 156.237Z" fill="#7D7E85"/>
<path d="M763.459 143.551V139.808C763.459 139.517 763.241 139.299 762.95 139.299H757.934V134.21C757.934 133.919 757.716 133.701 757.425 133.701H753.1C752.809 133.701 752.591 133.919 752.591 134.21V139.299H750.483C750.192 139.299 749.974 139.517 749.974 139.808V143.551C749.974 143.842 750.192 144.06 750.483 144.06H752.591C752.591 144.06 752.591 152.311 752.591 154.674C752.591 157.036 753.682 160.853 758.443 160.853C760.624 160.853 762.514 160.09 763.205 159.762C763.386 159.69 763.495 159.508 763.495 159.29V155.619C763.495 155.292 763.132 155.074 762.841 155.292C762.332 155.619 761.533 155.982 760.333 155.982C758.08 155.982 757.934 154.456 757.934 153.365C757.934 152.275 757.934 144.06 757.934 144.06H762.95C763.241 144.06 763.459 143.842 763.459 143.551Z" fill="#7D7E85"/>
<path d="M768.402 136.718C770.249 136.718 771.746 135.221 771.746 133.374C771.746 131.527 770.249 130.03 768.402 130.03C766.555 130.03 765.058 131.527 765.058 133.374C765.058 135.221 766.555 136.718 768.402 136.718Z" fill="#7D7E85"/>
<path d="M770.547 160.526H766.222C765.931 160.526 765.713 160.308 765.713 160.017V139.808C765.713 139.517 765.931 139.299 766.222 139.299H770.547C770.838 139.299 771.056 139.517 771.056 139.808V160.017C771.056 160.271 770.838 160.526 770.547 160.526Z" fill="#7D7E85"/>
<path d="M775.853 144.06H773.782C773.491 144.06 773.273 143.842 773.273 143.551V139.808C773.273 139.517 773.491 139.299 773.782 139.299H775.853C775.853 139.299 775.853 138.826 775.853 137.917C775.853 137.009 775.999 131.302 782.432 131.302C785.631 131.302 786.649 132.029 786.649 132.029C786.649 132.029 786.649 135.519 786.649 135.882C786.649 136.246 786.503 136.573 786.103 136.427C785.704 136.282 784.504 135.955 783.523 135.955C782.541 135.955 781.197 136.536 781.197 138.245C781.197 138.863 781.197 139.299 781.197 139.299H789.084C789.302 139.299 789.484 139.444 789.556 139.626L795.045 153.874L799.988 139.699C800.061 139.48 800.243 139.335 800.461 139.335H805.295C805.513 139.335 805.695 139.553 805.586 139.771C804.459 142.715 798.025 159.363 797.189 161.471C796.281 163.797 794.754 166.959 790.32 166.959C787.739 166.959 786.103 166.087 785.413 165.651C785.195 165.505 785.122 165.251 785.231 164.996L786.794 161.616C786.867 161.471 787.049 161.434 787.158 161.507C787.594 161.798 788.648 162.307 789.847 162.307C791.592 162.307 792.392 160.235 792.392 160.235L785.631 144.097H781.197V160.053C781.197 160.344 780.978 160.562 780.688 160.562H776.326C776.035 160.562 775.817 160.344 775.817 160.053L775.853 144.06Z" fill="#7D7E85"/>
<path d="M652.635 160.925C652.272 160.925 651.945 160.816 651.618 160.635C639.623 153.438 625.411 157.581 625.266 157.654C624.212 157.981 623.085 157.363 622.758 156.309C622.431 155.255 623.049 154.128 624.103 153.801C624.757 153.62 640.132 149.04 653.653 157.182C654.598 157.763 654.889 158.963 654.344 159.908C653.98 160.562 653.326 160.925 652.635 160.925Z" fill="white"/>
<path d="M656.089 152.711C655.689 152.711 655.289 152.602 654.925 152.384C639.878 143.733 624.684 148.749 624.539 148.822C623.303 149.258 621.958 148.604 621.522 147.368C621.086 146.132 621.74 144.787 622.976 144.351C623.667 144.097 640.35 138.572 657.252 148.277C658.378 148.931 658.778 150.385 658.124 151.511C657.724 152.275 656.925 152.711 656.089 152.711Z" fill="white"/>
<path d="M659.832 143.406C659.36 143.406 658.924 143.297 658.487 143.079C641.15 133.956 623.303 139.408 623.121 139.48C621.595 139.953 619.959 139.117 619.487 137.59C619.014 136.064 619.85 134.428 621.377 133.956C622.213 133.701 641.695 127.74 661.177 137.954C662.595 138.717 663.14 140.462 662.413 141.879C661.904 142.824 660.886 143.406 659.832 143.406Z" fill="white"/>
<path d="M60 124H83.4664C83.4664 131.818 83.4664 139.637 83.4664 147.455C75.6443 147.455 67.8221 147.455 60 147.455V124Z" fill="#7D7E85"/>
<path d="M85.8625 124H109.329C109.329 131.818 109.329 139.637 109.329 147.455C101.507 147.455 93.6847 147.455 85.8625 147.455C85.8625 139.637 85.8625 131.818 85.8625 124Z" fill="#7D7E85"/>
<path d="M271.607 132.931C273.777 131.522 276.568 131.396 279.006 132.058C279.02 133.509 279.006 134.96 279.02 136.411C277.864 135.903 276.497 135.565 275.285 136.073C274.313 136.453 273.749 137.453 273.594 138.439C273.411 139.693 273.538 140.975 273.495 142.243C275.976 142.243 278.442 142.243 280.923 142.243C280.937 140.637 280.909 139.031 280.951 137.425C282.628 136.946 284.305 136.411 285.968 135.903C285.983 138.017 285.954 140.13 285.983 142.257C287.66 142.229 289.337 142.257 291 142.243V146.356C289.323 146.286 287.646 146.342 285.954 146.328C285.968 148.694 285.954 151.061 285.954 153.428C285.983 154.738 285.884 156.062 286.039 157.358C286.138 158.133 286.405 158.978 287.138 159.386C288.35 160.063 289.887 159.767 291 159.02V163.176C289.548 163.81 287.928 163.993 286.363 163.88C284.869 163.767 283.333 163.232 282.36 162.049C281.233 160.711 280.951 158.907 280.923 157.203C280.909 153.569 280.923 149.934 280.923 146.3C278.442 146.3 275.976 146.3 273.495 146.3C273.495 152.005 273.495 157.71 273.495 163.415C271.804 163.415 270.113 163.415 268.422 163.415C268.422 157.71 268.407 152.005 268.422 146.314C267.252 146.286 266.068 146.314 264.884 146.3C264.884 144.947 264.898 143.595 264.884 142.229C266.054 142.2 267.224 142.214 268.407 142.214C268.492 140.411 268.224 138.566 268.76 136.805C269.211 135.255 270.226 133.833 271.607 132.931Z" fill="#7D7E85"/>
<path d="M162.956 133.227C163.985 133.072 165.085 133.424 165.761 134.227C166.55 135.1 166.705 136.495 166.113 137.523C165.465 138.679 163.999 139.214 162.731 138.932C161.42 138.693 160.321 137.467 160.377 136.101C160.335 134.678 161.547 133.396 162.956 133.227Z" fill="#7D7E85"/>
<path d="M124.057 133.861C126.523 133.861 128.976 133.861 131.442 133.861C133.74 139.693 136.051 145.511 138.348 151.343C138.94 152.808 139.49 154.273 140.096 155.724C143.056 148.441 146.044 141.172 148.989 133.875C151.357 133.833 153.725 133.861 156.093 133.861C156.093 143.722 156.093 153.583 156.093 163.444C154.387 163.444 152.682 163.458 150.976 163.429C150.991 156.161 150.976 148.878 150.991 141.595C150.991 141.271 150.976 140.947 150.962 140.609C150.864 140.764 150.779 140.919 150.695 141.088C147.763 148.54 144.775 155.963 141.858 163.415C140.646 163.458 139.434 163.415 138.207 163.444C135.177 155.992 132.189 148.525 129.187 141.073C129.103 140.919 129.018 140.764 128.934 140.623C128.877 143.806 128.919 147.004 128.905 150.188C128.905 154.597 128.905 159.02 128.905 163.429C127.299 163.429 125.678 163.429 124.071 163.429C124.057 153.583 124.057 143.722 124.057 133.861Z" fill="#7D7E85"/>
<path d="M176.924 142.214C179.376 141.51 182.011 141.538 184.464 142.243C184.971 142.383 185.45 142.581 185.916 142.848C185.887 144.468 185.916 146.088 185.901 147.694C184.267 146.44 182.195 145.652 180.109 145.919C178.46 146.074 176.881 146.919 175.895 148.258C174.626 149.906 174.33 152.103 174.556 154.132C174.725 155.71 175.373 157.301 176.599 158.344C177.882 159.485 179.672 159.879 181.349 159.753C182.998 159.555 184.562 158.865 185.901 157.879C185.916 159.415 185.901 160.936 185.916 162.471C183.844 163.711 181.349 164.021 178.981 163.908C176.557 163.781 174.133 162.866 172.371 161.147C170.454 159.302 169.426 156.682 169.299 154.047C169.172 151.315 169.736 148.455 171.3 146.173C172.611 144.243 174.669 142.862 176.924 142.214Z" fill="#7D7E85"/>
<path d="M232.355 141.905C234.695 141.496 237.161 141.792 239.374 142.637C239.374 144.187 239.374 145.75 239.374 147.3C237.823 146.229 235.921 145.666 234.046 145.722C233.102 145.764 232.059 146.159 231.622 147.06C231.284 147.948 231.509 149.117 232.355 149.652C233.793 150.61 235.512 151.019 237.006 151.892C238.176 152.554 239.317 153.414 239.909 154.653C241.023 156.978 240.558 160.063 238.584 161.795C236.71 163.542 234.004 164.035 231.523 163.937C229.762 163.824 227.986 163.472 226.365 162.753C226.379 161.119 226.351 159.485 226.379 157.851C227.746 158.837 229.311 159.555 230.988 159.837C232.144 160.02 233.412 160.034 234.497 159.513C235.526 159.006 235.723 157.527 235.103 156.625C234.525 155.935 233.68 155.555 232.89 155.174C231.397 154.498 229.818 153.935 228.507 152.935C227.577 152.216 226.886 151.202 226.605 150.061C226.196 148.37 226.323 146.469 227.309 145.004C228.423 143.285 230.368 142.257 232.355 141.905Z" fill="#7D7E85"/>
<path d="M197.247 142.567C198.642 141.721 200.432 141.651 201.954 142.172C201.94 143.863 201.954 145.553 201.954 147.243C200.954 146.595 199.699 146.314 198.529 146.441C197.092 146.61 195.95 147.708 195.358 148.976C194.71 150.314 194.597 151.836 194.64 153.301C194.64 156.682 194.64 160.063 194.64 163.443C192.976 163.443 191.299 163.443 189.636 163.443C189.636 156.386 189.636 149.314 189.636 142.257C191.299 142.229 192.976 142.243 194.64 142.257C194.625 143.468 194.64 144.68 194.64 145.891C195.175 144.567 195.978 143.285 197.247 142.567Z" fill="#7D7E85"/>
<path d="M160.842 142.243C162.519 142.243 164.211 142.214 165.888 142.257C165.874 149.314 165.888 156.386 165.874 163.443C164.197 163.443 162.519 163.443 160.842 163.443C160.842 156.372 160.842 149.314 160.842 142.243Z" fill="#7D7E85"/>
<path d="M222.997 147.187C222.123 145.229 220.53 143.595 218.557 142.707C216.302 141.679 213.723 141.538 211.299 141.848C208.733 142.172 206.253 143.37 204.632 145.412C203.152 147.229 202.433 149.568 202.293 151.892C202.095 154.625 202.546 157.527 204.153 159.809C205.52 161.781 207.676 163.134 210.016 163.627C211.961 164.035 214.005 164.035 215.964 163.627C218.247 163.162 220.375 161.894 221.785 160.034C223.166 158.274 223.856 156.062 224.011 153.864C224.166 151.61 223.941 149.272 222.997 147.187ZM218.106 156.921C217.627 158.006 216.739 158.936 215.611 159.372C214.301 159.879 212.821 159.908 211.468 159.555C210.087 159.189 208.917 158.203 208.282 156.935C207.465 155.301 207.338 153.414 207.507 151.624C207.662 150.004 208.226 148.328 209.466 147.201C210.368 146.356 211.595 145.947 212.807 145.877C214.329 145.778 215.95 146.215 217.049 147.314C218.219 148.469 218.67 150.131 218.797 151.737C218.909 153.484 218.839 155.301 218.106 156.921Z" fill="#7D7E85"/>
<path d="M263.643 147.807C262.868 145.708 261.304 143.877 259.288 142.877C256.977 141.707 254.285 141.538 251.762 141.848C249.719 142.116 247.717 142.891 246.153 144.257C244.25 145.891 243.137 148.3 242.798 150.765C242.488 153.23 242.587 155.822 243.602 158.133C244.56 160.401 246.463 162.232 248.76 163.134C251.015 164.021 253.524 164.12 255.906 163.739C258.33 163.345 260.641 162.063 262.15 160.091C263.756 158.062 264.447 155.428 264.447 152.864C264.475 151.16 264.264 149.413 263.643 147.807ZM259.063 154.991C258.866 156.104 258.485 157.217 257.752 158.105C257.019 158.992 255.92 159.527 254.792 159.696C253.58 159.88 252.298 159.795 251.156 159.302C249.93 158.781 248.986 157.724 248.478 156.499C247.872 155.048 247.76 153.428 247.872 151.878C247.985 150.371 248.408 148.821 249.409 147.652C250.311 146.553 251.706 145.962 253.115 145.877C254.553 145.778 256.075 146.102 257.174 147.074C258.189 147.92 258.753 149.173 259.007 150.455C259.317 151.949 259.317 153.498 259.063 154.991Z" fill="#7D7E85"/>
<path d="M60 149.85C67.8221 149.85 75.6443 149.85 83.4664 149.85C83.4664 157.668 83.4664 165.486 83.4664 173.304H60V149.85Z" fill="#7D7E85"/>
<path d="M85.8625 149.85C93.6847 149.85 101.507 149.85 109.329 149.85C109.329 157.668 109.329 165.486 109.329 173.304H85.8625C85.8625 165.486 85.8625 157.668 85.8625 149.85Z" fill="#7D7E85"/>
</svg>
